<svg width="87" height="12" viewBox="0 0 87 12" fill="none" xmlns="http://www.w3.org/2000/svg">
    <path d="M7.5032 0.185547H10.9137V11.5312H7.5032V7.10834H3.41055V11.5312H0V0.185547H3.41055V4.60844H7.5032V0.185547Z" fill="#F8C617"/>
    <path d="M13.6431 0.185547H17.1776V11.5312H13.6431V0.185547Z" fill="#F8C617"/>
    <path d="M29.9514 3.51874H26.5408V2.74954C26.5408 2.49314 26.4788 2.36494 26.4168 2.30084C26.3548 2.23674 26.1688 2.17264 25.9827 2.17264H23.8124C23.5643 2.17264 23.4403 2.23674 23.3783 2.30084C23.3163 2.36494 23.2543 2.49314 23.2543 2.74954V9.09543C23.2543 9.35183 23.3163 9.48003 23.3783 9.54413C23.4403 9.60823 23.5643 9.67233 23.8124 9.67233H25.9827C26.2308 9.67233 26.3548 9.60823 26.4168 9.54413C26.4788 9.48003 26.5408 9.35183 26.5408 9.09543V7.17244H24.7425V4.67254H29.9514V10.121C29.9514 11.0825 29.4553 11.5953 28.5251 11.5953H21.27C20.3398 11.5953 19.8438 11.1466 19.8438 10.121V1.65984C19.8438 0.698346 20.2778 0.185547 21.27 0.185547H28.5871C29.5173 0.185547 30.0134 0.698346 30.0134 1.65984V3.51874H29.9514Z" fill="#F8C617"/>
    <path d="M40.1204 0.185547H43.5309V11.5312H40.1204V7.10834H36.0277V11.5312H32.6172V0.185547H36.0277V4.60844H40.1204V0.185547Z" fill="#F8C617"/>
    <path d="M61.0796 0.185547H64.3661L60.8316 11.5312H56.8629L54.7546 3.77514L52.6463 11.5312H48.6776L45.1431 0.185547H48.6156L50.6619 8.39033L52.7703 0.185547H56.6769L58.7853 8.39033L61.0796 0.185547Z" fill="#F8C617"/>
    <path d="M72.8616 11.5953L72.2415 9.54413L67.6527 9.48003L66.9706 11.5312H63.6841L67.8387 0.185547H72.0554L76.2721 11.5312H72.8616V11.5953ZM68.3968 6.98014H71.3733L69.8851 2.30084L68.3968 6.98014Z" fill="#F8C617"/>
    <path d="M82.721 11.5957H79.3104V7.87789L74.8457 0.25H78.1942L80.9847 5.95489L83.6511 0.25H86.9997L82.721 7.87789V11.5957Z" fill="#F8C617"/>
</svg>
